<svg width="211" height="44" viewBox="0 0 211 44" fill="none" xmlns="http://www.w3.org/2000/svg">
<rect width="210.75" height="44" fill="black"/>
<rect width="190.75" height="28" transform="translate(10 8)" fill="black"/>
<path d="M33.5809 8C33.2199 8.64088 32.8958 9.30387 32.6011 9.98158C29.8019 9.56169 26.9511 9.56169 24.1444 9.98158C23.8571 9.30387 23.5256 8.64088 23.1647 8C20.5348 8.44936 17.9713 9.23757 15.5404 10.3499C10.7227 17.488 9.41883 24.442 10.0671 31.3002C12.8884 33.3849 16.0487 34.9761 19.4151 35.9926C20.1739 34.9761 20.8442 33.8932 21.4188 32.7661C20.3286 32.361 19.2752 31.8527 18.266 31.2634C18.5312 31.0718 18.789 30.8729 19.0395 30.6814C24.9547 33.4659 31.8056 33.4659 37.7282 30.6814C37.9787 30.8877 38.2365 31.0866 38.5017 31.2634C37.4925 31.86 36.4391 32.361 35.3415 32.7735C35.9161 33.9006 36.5864 34.9834 37.3452 36C40.7116 34.9834 43.8719 33.3996 46.6932 31.3149C47.4593 23.3591 45.382 16.4641 41.2052 10.3573C38.7816 9.24494 36.2181 8.45672 33.5883 8.01473L33.5809 8ZM22.2439 27.0792C20.4244 27.0792 18.9142 25.4291 18.9142 23.3886C18.9142 21.3481 20.3654 19.6906 22.2365 19.6906C24.1076 19.6906 25.5956 21.3554 25.5662 23.3886C25.5367 25.4217 24.1002 27.0792 22.2439 27.0792ZM34.5164 27.0792C32.6895 27.0792 31.1942 25.4291 31.1942 23.3886C31.1942 21.3481 32.6454 19.6906 34.5164 19.6906C36.3875 19.6906 37.8682 21.3554 37.8387 23.3886C37.8093 25.4217 36.3728 27.0792 34.5164 27.0792ZM82.4154 13.1123C80.5811 12.2873 78.3417 11.8748 75.6898 11.8748H64.699V31.6096H74.9016C77.7745 31.6096 80.1833 31.1676 82.1281 30.2836C83.9034 29.547 85.4135 28.2947 86.4743 26.6888C87.4246 25.1713 87.9181 23.4107 87.896 21.6206C87.9255 19.8379 87.4541 18.0847 86.5259 16.5599C85.5388 15.0203 84.1023 13.8122 82.4154 13.105V13.1123ZM78.9089 25.2523C77.9513 26.1436 76.5811 26.593 74.7911 26.593H71.7487V16.8987H75.1889C76.9126 16.8987 78.2091 17.3333 79.071 18.1805C79.9476 19.0939 80.4117 20.3315 80.3528 21.6059C80.4191 22.9761 79.896 24.302 78.9163 25.2597L78.9089 25.2523ZM116.309 23.0718C117.207 23.8748 117.657 25.0534 117.664 26.6077C117.693 28.2652 116.839 29.8195 115.417 30.6814C113.937 31.6759 111.815 32.1768 109.06 32.1694C107.476 32.1694 105.9 31.9705 104.367 31.5801C102.916 31.2192 101.531 30.6372 100.25 29.8637V25.186C101.369 25.9963 102.622 26.593 103.955 26.9466C105.414 27.3886 106.931 27.6243 108.456 27.6317C108.979 27.6611 109.509 27.5654 109.995 27.3665C110.342 27.1897 110.511 26.9613 110.511 26.733C110.519 26.4678 110.415 26.2173 110.231 26.0258C109.907 25.7827 109.531 25.6133 109.134 25.547L105.752 24.7882C103.815 24.3389 102.437 23.7127 101.627 22.9171C100.802 22.0847 100.36 20.9429 100.419 19.7716C100.404 18.7256 100.787 17.709 101.487 16.9282C102.32 16.0442 103.373 15.4033 104.53 15.0571C106.025 14.5856 107.587 14.3646 109.156 14.3941C110.622 14.3794 112.08 14.5488 113.495 14.9024C114.644 15.175 115.741 15.6096 116.765 16.1989V20.6262C115.808 20.0737 114.776 19.6464 113.708 19.3739C112.544 19.0645 111.344 18.9024 110.143 18.9024C108.375 18.9024 107.491 19.2044 107.491 19.8011C107.491 20.0737 107.646 20.3241 107.896 20.4346C108.382 20.6409 108.883 20.7882 109.399 20.8692L112.22 21.3775C114.047 21.7017 115.417 22.2615 116.316 23.0718H116.309ZM135.019 26.3278C135.844 26.0921 136.633 25.7532 137.369 25.326V30.3204C135.189 31.5875 132.699 32.2357 130.18 32.1842C128.161 32.2357 126.15 31.8306 124.316 30.9908C122.806 30.2983 121.539 29.1786 120.662 27.7716C119.844 26.3867 119.425 24.8103 119.454 23.2044C119.432 21.5985 119.874 20.0221 120.721 18.6667C121.627 17.2818 122.924 16.1915 124.441 15.5285C126.29 14.7256 128.286 14.3352 130.305 14.3867C133.126 14.3867 135.461 14.9761 137.325 16.1621V21.326C136.618 20.8471 135.844 20.4788 135.027 20.2284C134.113 19.9411 133.163 19.8011 132.205 19.8085C130.46 19.8085 129.089 20.1252 128.102 20.7661C126.717 21.5396 126.216 23.2928 126.99 24.6851C127.24 25.1344 127.616 25.5101 128.058 25.7753C129.016 26.4236 130.408 26.7477 132.228 26.7477C133.17 26.7477 134.106 26.6151 135.005 26.3425L135.019 26.3278ZM155.889 15.5212C152.183 14.0184 148.036 14.0184 144.331 15.5212C142.821 16.1842 141.539 17.267 140.625 18.6372C139.763 19.9926 139.314 21.5617 139.344 23.1676C139.321 24.7882 139.771 26.3867 140.625 27.7643C141.531 29.1713 142.828 30.291 144.353 30.9834C148.036 32.5525 152.198 32.5525 155.881 30.9761C157.399 30.2836 158.688 29.1639 159.587 27.7569C160.434 26.372 160.876 24.7808 160.854 23.1602C160.883 21.5543 160.441 19.9779 159.587 18.6225C158.681 17.2597 157.399 16.1768 155.896 15.5212H155.889ZM152.913 25.9816C152.154 26.6961 151.137 27.0718 150.091 27.0055C149.053 27.0571 148.036 26.6888 147.27 25.9816C146.57 25.2523 146.194 24.2726 146.246 23.256C146.194 22.2541 146.57 21.2818 147.27 20.5672C148.036 19.8674 149.053 19.5138 150.091 19.5654C151.13 19.5064 152.147 19.8674 152.913 20.5672C153.62 21.2818 153.995 22.2541 153.944 23.256C153.988 24.2652 153.62 25.2523 152.913 25.9816ZM175.226 14.7403C176.124 14.7182 177.016 14.9466 177.789 15.418V21.5175C176.949 21.0166 175.977 20.7735 174.997 20.8103C173.495 20.8103 172.338 21.267 171.528 22.1805C170.725 23.0939 170.32 24.5083 170.32 26.4236V31.6096H163.41V15.116H170.172V20.3536C170.548 18.4383 171.152 17.0239 171.992 16.1105C172.817 15.2044 173.988 14.7035 175.211 14.7403H175.226ZM193.833 11.3076V18.6593C192.706 15.8011 190.496 14.372 187.211 14.372C185.708 14.3499 184.228 14.7477 182.938 15.5285C181.686 16.3094 180.677 17.4217 180.036 18.7477C179.336 20.1989 178.99 21.7901 179.042 23.3959C179.012 24.9503 179.336 26.4825 179.984 27.8969C180.574 29.1713 181.517 30.2615 182.695 31.0276C183.918 31.8011 185.34 32.1989 186.784 32.1694C188.323 32.2136 189.841 31.8379 191.174 31.0718C192.382 30.3278 193.318 29.2155 193.841 27.8969V31.6022H200.751V11.3076H193.841H193.833ZM192.817 25.8858C192.051 26.593 191.034 26.954 189.995 26.895C188.979 26.9466 187.984 26.5783 187.233 25.8858C186.526 25.2007 186.143 24.2431 186.18 23.256C186.143 22.2762 186.519 21.3333 187.226 20.6483C188.854 19.3223 191.189 19.3223 192.817 20.6483C193.524 21.3112 193.907 22.2468 193.878 23.2192C193.914 24.2136 193.531 25.186 192.817 25.8858ZM97.1631 13.7827C97.1631 15.4917 95.6235 16.8766 93.7229 16.8766C91.8224 16.8766 90.2828 15.4917 90.2828 13.7827C90.2828 12.0737 91.8224 10.6888 93.7229 10.6888C95.6235 10.6888 97.1631 12.0737 97.1631 13.7827ZM97.1631 19.0055V31.698H90.2754V19.0055C92.478 19.9337 94.9605 19.9337 97.1631 19.0055Z" fill="white"/>
</svg>
